<?xml version="1.0" encoding="UTF-8"?>
<svg id="_圖層_1" data-name="圖層 1" xmlns="http://www.w3.org/2000/svg" xmlns:xlink="http://www.w3.org/1999/xlink" viewBox="0 0 912.29 150.66">
  <defs>
    <style>
      .cls-1 {
        fill: #30a99d;
      }

      .cls-2 {
        fill: #7e8081;
      }

      .cls-3 {
        fill: #393b3b;
        stroke: #040000;
        stroke-width: .25px;
      }

      .cls-3, .cls-4 {
        stroke-miterlimit: 10;
      }

      .cls-5 {
        fill: url(#_未命名漸層_2);
      }

      .cls-4 {
        fill: #3a3b3b;
        stroke: #3a3b3b;
        stroke-width: .56px;
      }

      .cls-6 {
        isolation: isolate;
      }

      .cls-7 {
        fill: url(#_未命名漸層_2-2);
      }

      .cls-8 {
        fill: #2c87a4;
      }
    </style>
    <linearGradient id="_未命名漸層_2" data-name="未命名漸層 2" x1="59.37" y1="77.72" x2="244.69" y2="77.72" gradientTransform="translate(0 152) scale(1 -1)" gradientUnits="userSpaceOnUse">
      <stop offset="0" stop-color="#1363a3"/>
      <stop offset=".48" stop-color="#42b0a9"/>
      <stop offset="1" stop-color="#8dbf63"/>
    </linearGradient>
    <linearGradient id="_未命名漸層_2-2" data-name="未命名漸層 2" x1="93.39" y1="73.11" x2="259.13" y2="73.11" xlink:href="#_未命名漸層_2"/>
  </defs>
  <g>
    <path class="cls-2" d="m308.79,98.39c.31.35.46.79.46,1.29,0,.43-.12.85-.37,1.25l-9.99,15.75v8.84c0,.56-.19,1.03-.56,1.4s-.83.56-1.38.56-.97-.19-1.34-.56-.56-.85-.56-1.4v-8.84l-9.91-15.75c-.27-.43-.41-.84-.41-1.22,0-.53.19-.98.57-1.33s.84-.53,1.35-.53c.39,0,.72.09.97.27.25.18.5.45.74.84l8.69,14.08,8.83-14.23c.39-.63.97-.95,1.71-.95.47,0,.86.17,1.17.52Z"/>
    <path class="cls-2" d="m322.71,126.75c-1.84-.9-3.28-2.14-4.31-3.74-1.03-1.59-1.54-3.42-1.54-5.46v-17.72c0-.58.19-1.05.56-1.42.37-.37.83-.55,1.37-.55s1.04.18,1.4.55.54.84.54,1.42v17.72c0,1.34.35,2.54,1.06,3.6.7,1.06,1.69,1.89,2.94,2.48,1.25.59,2.68.89,4.29.89s2.91-.3,4.12-.89c1.22-.59,2.16-1.42,2.84-2.48.68-1.06,1.02-2.26,1.02-3.6v-17.72c0-.58.19-1.05.56-1.42.37-.37.83-.55,1.38-.55s.99.18,1.35.55c.36.37.54.84.54,1.42v17.72c0,2.02-.5,3.84-1.51,5.44-1,1.61-2.4,2.86-4.19,3.76s-3.83,1.34-6.1,1.34-4.45-.45-6.3-1.34Z"/>
    <path class="cls-2" d="m372.7,125.55c0,.53-.19.98-.56,1.37-.37.38-.83.56-1.37.56-.37,0-.73-.11-1.06-.33-.33-.21-.57-.51-.73-.89l-2.08-5.32h-13.33l-2.11,5.32c-.17.38-.42.68-.74.89s-.67.33-1.04.33c-.55,0-.99-.2-1.35-.59-.36-.39-.54-.86-.54-1.39,0-.25.06-.54.19-.87l10.43-25.46c.37-.88.98-1.33,1.81-1.33.89,0,1.5.45,1.82,1.33l10.47,25.53c.12.34.18.62.18.85Zm-17.82-7.86h10.72l-5.31-13.51-5.42,13.51Z"/>
    <path class="cls-2" d="m381.18,126.94c-.36-.37-.54-.84-.54-1.42v-25.69c0-.58.18-1.05.54-1.42.36-.37.81-.55,1.35-.55.27,0,.55.07.81.21.27.14.5.31.67.51l16.19,22.01v-20.76c0-.58.19-1.05.56-1.42.37-.37.83-.55,1.37-.55s.99.18,1.35.55c.36.37.54.84.54,1.42v25.69c0,.58-.18,1.06-.54,1.42-.36.37-.81.55-1.35.55-.27,0-.55-.06-.84-.17-.28-.11-.5-.28-.65-.51l-16.19-22.01v20.71c0,.56-.18,1.03-.54,1.4s-.82.56-1.4.56c-.52,0-.98-.17-1.34-.54Z"/>
    <path class="cls-2" d="m432,126.71c-1.35-.77-2.4-1.85-3.16-3.23-.75-1.38-1.13-2.95-1.13-4.72,0-.58.19-1.05.56-1.42.37-.37.83-.55,1.37-.55s1.04.18,1.4.55.54.84.54,1.42c0,1.62.47,2.94,1.41,3.98.94,1.04,2.16,1.56,3.64,1.56s2.7-.52,3.65-1.56c.95-1.04,1.43-2.36,1.43-3.98v-18.93c0-.58.18-1.05.54-1.42.36-.37.81-.55,1.35-.55s1.04.18,1.41.55c.37.37.56.84.56,1.42v18.93c0,1.77-.39,3.35-1.15,4.72-.77,1.38-1.82,2.46-3.18,3.23-1.35.77-2.89,1.16-4.62,1.16-1.73,0-3.27-.38-4.62-1.16Z"/>
    <path class="cls-2" d="m457.26,126.92c-.37-.38-.56-.85-.56-1.4v-25.69c0-.58.19-1.05.56-1.42.37-.37.83-.55,1.37-.55s1.04.18,1.4.55.54.84.54,1.42v10.89h17.22v-10.89c0-.58.19-1.05.56-1.42.37-.37.83-.55,1.37-.55s.99.18,1.35.55c.36.37.54.84.54,1.42v25.69c0,.58-.18,1.06-.54,1.42-.36.37-.81.55-1.35.55s-1-.19-1.37-.56-.56-.85-.56-1.4v-11.31h-17.22v11.31c0,.56-.18,1.03-.54,1.4s-.82.56-1.4.56c-.54,0-.99-.19-1.37-.56Z"/>
    <path class="cls-2" d="m493.3,126.92c-.37-.38-.56-.85-.56-1.4v-25.69c0-.58.19-1.05.56-1.42.37-.37.83-.55,1.37-.55h16.78c.57,0,1.03.17,1.38.51.34.34.52.79.52,1.34s-.17.96-.52,1.29c-.35.33-.8.5-1.38.5h-14.85v9.22h10.66c.55,0,.99.17,1.35.51.36.34.54.78.54,1.31s-.18.97-.54,1.31-.81.51-1.35.51h-10.66v9.48h14.85c.57,0,1.03.16,1.38.5.34.33.52.76.52,1.29s-.17,1-.52,1.34c-.35.34-.8.51-1.38.51h-16.78c-.54-.02-.99-.21-1.37-.58Z"/>
    <path class="cls-2" d="m522.98,126.94c-.36-.37-.54-.84-.54-1.42v-25.69c0-.58.18-1.05.54-1.42.36-.37.81-.55,1.35-.55.27,0,.55.07.81.21.27.14.5.31.67.51l16.19,22.01v-20.76c0-.58.19-1.05.56-1.42.37-.37.83-.55,1.37-.55s.99.18,1.35.55c.36.37.54.84.54,1.42v25.69c0,.58-.18,1.06-.54,1.42-.36.37-.81.55-1.35.55-.27,0-.55-.06-.84-.17-.28-.11-.51-.28-.65-.51l-16.19-22.01v20.71c0,.56-.18,1.03-.54,1.4s-.82.56-1.4.56c-.53,0-.98-.17-1.34-.54Z"/>
    <path class="cls-2" d="m572.11,126.92c-.37-.38-.56-.85-.56-1.4v-25.69c0-.58.19-1.05.56-1.42.37-.37.83-.55,1.37-.55.57,0,1.04.18,1.4.55s.54.84.54,1.42v25.69c0,.56-.18,1.03-.54,1.4s-.82.56-1.4.56-1-.19-1.37-.56Z"/>
    <path class="cls-2" d="m600.88,107.68c1.36.76,2.42,1.87,3.19,3.32.77,1.46,1.15,3.21,1.15,5.26v9.33c0,.56-.18,1.02-.54,1.39s-.81.55-1.35.55-.99-.18-1.35-.55c-.36-.37-.54-.83-.54-1.39v-9.33c0-2.05-.54-3.59-1.62-4.65s-2.51-1.57-4.29-1.57c-1.04,0-1.99.21-2.84.64s-1.52,1.01-2,1.75-.73,1.56-.73,2.47v10.7c0,.56-.17,1.02-.52,1.39s-.8.55-1.38.55-.99-.18-1.35-.55c-.36-.37-.54-.83-.54-1.39v-16.92c0-.58.18-1.05.54-1.4s.81-.53,1.35-.53,1.03.18,1.38.53c.34.36.52.82.52,1.4v.42c.8-.81,1.73-1.44,2.82-1.87,1.09-.45,2.25-.67,3.49-.67,1.7,0,3.24.38,4.6,1.14Z"/>
    <path class="cls-2" d="m620.63,102.75c-.84.93-1.26,2.17-1.26,3.72v1.03h3.78c.52,0,.94.15,1.26.45.33.3.48.71.48,1.22,0,.45-.16.84-.48,1.14-.33.3-.74.45-1.26.45h-3.78v14.8c0,.58-.17,1.05-.52,1.4-.34.35-.83.53-1.45.53-.5,0-.92-.18-1.28-.53-.36-.35-.54-.82-.54-1.4v-14.8h-1.59c-.52,0-.94-.15-1.27-.45s-.48-.68-.48-1.14c0-.5.16-.91.48-1.22.33-.3.74-.45,1.27-.45h1.59v-.64c0-1.8.35-3.37,1.06-4.72s1.69-2.41,2.97-3.15,2.73-1.12,4.37-1.12c.55,0,.99.16,1.35.5.36.33.54.74.54,1.25s-.18.92-.54,1.25-.81.5-1.35.5c-1.4,0-2.51.46-3.35,1.4Z"/>
    <path class="cls-2" d="m635.7,126.29c-1.56-.9-2.77-2.14-3.64-3.74-.86-1.59-1.3-3.4-1.3-5.43s.44-3.87,1.3-5.46,2.08-2.84,3.64-3.74c1.56-.9,3.33-1.34,5.31-1.34s3.71.45,5.26,1.34c1.55.9,2.76,2.14,3.64,3.74.88,1.59,1.32,3.42,1.32,5.46s-.44,3.83-1.3,5.43-2.07,2.84-3.62,3.74c-1.55.9-3.31,1.34-5.29,1.34-1.99,0-3.75-.45-5.31-1.34Zm8.7-2.97c1-.61,1.78-1.45,2.34-2.53.56-1.08.84-2.29.84-3.66s-.28-2.59-.84-3.68c-.56-1.09-1.34-1.93-2.34-2.54s-2.13-.91-3.4-.91-2.4.3-3.4.91c-1,.61-1.79,1.46-2.35,2.54-.57,1.09-.86,2.31-.86,3.68s.28,2.58.86,3.66c.56,1.08,1.35,1.92,2.35,2.53,1,.61,2.13.91,3.4.91s2.4-.3,3.4-.91Z"/>
    <path class="cls-2" d="m659.85,127.32c-.51-.52-.76-1.13-.76-1.84s.26-1.36.76-1.88,1.1-.78,1.8-.78,1.29.26,1.8.78c.51.52.76,1.15.76,1.88s-.25,1.32-.74,1.84-1.1.78-1.81.78-1.29-.26-1.8-.78Z"/>
    <path class="cls-2" d="m693.81,125.86c-2.19-1.34-3.92-3.18-5.18-5.5-1.27-2.33-1.89-4.9-1.89-7.7s.63-5.33,1.89-7.64c1.26-2.31,2.99-4.15,5.18-5.5,2.19-1.35,4.6-2.03,7.26-2.03,1.88,0,3.51.26,4.88.76,1.38.5,2.76,1.34,4.18,2.51.3.23.5.46.59.7.09.24.15.52.15.86,0,.5-.18.92-.54,1.25s-.77.5-1.24.5-.91-.16-1.3-.5c-1.02-.88-2-1.52-2.97-1.92-.97-.39-2.22-.59-3.75-.59-1.93,0-3.71.52-5.32,1.56-1.62,1.04-2.91,2.45-3.86,4.23s-1.43,3.72-1.43,5.82.48,4.07,1.43,5.85,2.24,3.18,3.86,4.21c1.62,1.04,3.4,1.56,5.32,1.56,2.37,0,4.65-.84,6.83-2.51.42-.3.83-.45,1.22-.45.47,0,.86.17,1.17.51.31.34.46.79.46,1.34s-.2,1-.59,1.4c-2.67,2.2-5.7,3.3-9.1,3.3-2.64,0-5.06-.68-7.25-2.01Z"/>
    <path class="cls-2" d="m722.67,126.29c-1.56-.9-2.77-2.14-3.64-3.74-.86-1.59-1.3-3.4-1.3-5.43s.44-3.87,1.3-5.46,2.08-2.84,3.64-3.74c1.56-.9,3.33-1.34,5.31-1.34s3.71.45,5.26,1.34c1.55.9,2.76,2.14,3.64,3.74.88,1.59,1.32,3.42,1.32,5.46s-.44,3.83-1.3,5.43-2.07,2.84-3.62,3.74c-1.55.9-3.31,1.34-5.29,1.34s-3.75-.45-5.31-1.34Zm8.7-2.97c1-.61,1.78-1.45,2.34-2.53.56-1.08.84-2.29.84-3.66s-.28-2.59-.84-3.68c-.56-1.09-1.34-1.93-2.34-2.54s-2.13-.91-3.4-.91-2.4.3-3.4.91c-1,.61-1.79,1.46-2.35,2.54-.57,1.09-.86,2.31-.86,3.68s.28,2.58.86,3.66c.56,1.08,1.35,1.92,2.35,2.53,1,.61,2.13.91,3.4.91s2.4-.3,3.4-.91Z"/>
    <path class="cls-2" d="m746.82,127.32c-.51-.52-.76-1.13-.76-1.84s.26-1.36.76-1.88,1.1-.78,1.8-.78,1.29.26,1.8.78c.51.52.76,1.15.76,1.88s-.25,1.32-.74,1.84-1.1.78-1.81.78-1.29-.26-1.8-.78Z"/>
    <path class="cls-2" d="m775.59,126.92c-.36-.38-.54-.85-.54-1.4v-25.69c0-.56.19-1.03.56-1.4.37-.38.81-.56,1.34-.56s1,.19,1.37.56.56.85.56,1.4v23.72h13.44c.54,0,1,.19,1.37.56s.56.85.56,1.4-.19,1.03-.56,1.4c-.37.38-.83.56-1.37.56h-15.36c-.54,0-.99-.19-1.35-.56Z"/>
    <path class="cls-2" d="m812.01,124.23c.31.36.46.81.46,1.37s-.21,1.01-.62,1.37-.93.53-1.57.53h-.67c-1.22,0-2.32-.33-3.32-.97s-1.79-1.52-2.35-2.64-.86-2.36-.86-3.76v-9.37h-1.7c-.52,0-.94-.15-1.26-.45-.33-.3-.48-.68-.48-1.14,0-.5.16-.91.48-1.22.33-.3.74-.45,1.26-.45h1.7v-5.46c0-.56.17-1.01.52-1.37.34-.35.79-.53,1.34-.53s.99.18,1.34.53c.34.36.52.81.52,1.37v5.46h3.16c.52,0,.94.15,1.27.45s.48.71.48,1.22c0,.45-.16.84-.48,1.14-.33.3-.74.45-1.27.45h-3.16v9.37c0,1.01.27,1.86.81,2.54s1.22,1.03,2,1.03h1.26c.45,0,.82.17,1.14.52Z"/>
    <path class="cls-2" d="m839.71,98.39c.34.35.52.82.52,1.4v17.3c0,1.98-.45,3.77-1.35,5.37-.91,1.61-2.13,2.88-3.67,3.79-1.55.92-3.27,1.39-5.18,1.39s-3.65-.46-5.21-1.39c-1.57-.92-2.8-2.19-3.7-3.79-.89-1.61-1.34-3.4-1.34-5.37s.41-3.77,1.24-5.37c.83-1.61,1.97-2.87,3.42-3.77s3.06-1.37,4.84-1.37c1.44,0,2.77.3,4.01.91,1.24.61,2.29,1.46,3.16,2.54v-10.25c0-.58.18-1.05.54-1.4s.81-.53,1.35-.53c.56,0,1.02.19,1.37.54Zm-6.33,24.91c1-.62,1.79-1.47,2.35-2.56.56-1.09.86-2.3.86-3.65s-.28-2.55-.86-3.62c-.57-1.08-1.35-1.93-2.35-2.54s-2.12-.93-3.36-.93-2.35.31-3.36.93c-1,.62-1.8,1.46-2.38,2.54-.58,1.08-.87,2.29-.87,3.62s.29,2.56.87,3.65c.58,1.09,1.38,1.94,2.38,2.56,1,.62,2.12.93,3.36.93s2.35-.31,3.36-.93Z"/>
  </g>
  <g>
    <path class="cls-4" d="m284.97,58.27c-.03-.06.06-.33.28-.81.22-.48.75-.81,1.59-.99h5.34c.09-.06.5.09,1.24.43.74.34,1.16,1.32,1.29,2.91v9.37c-.03.06.04.48.23,1.26s.61,1.7,1.27,2.77c.66,1.07,1.7,2.01,3.14,2.84,1.44.83,3.39,1.3,5.86,1.42h21c.06-.03.36.03.89.21.53.16.89.68,1.08,1.56,0,.06-.12.33-.35.81s-.77.81-1.62.99h-20.44c-.22.06-1.67-.2-4.36-.77-2.69-.57-5.32-1.95-7.92-4.14-.03.06-.63.52-1.81,1.38s-2.85,1.86-5.04,3c-.06.06-.39.1-.96.14-.58.03-1.1-.32-1.57-1.04-.09-.09-.16-.45-.21-1.08-.04-.63.31-1.1,1.05-1.4.25.03,1.28-.4,3.07-1.28s2.87-2.38,3.21-4.49v-9.73c.03-.06-.04-.33-.23-.79s-.68-.74-1.46-.83h-2.9c-.09.06-.39,0-.86-.18-.5-.21-.77-.72-.83-1.56Zm9.94-7.93c-.03.09-.3.21-.8.36-.5.15-1.08-.09-1.74-.72-.13-.09-.8-.76-2.04-2-1.23-1.25-2.46-2.41-3.68-3.49-.09,0-.27-.22-.54-.68s-.15-1.01.35-1.67c0-.06.27-.18.82-.36.55-.18,1.21-.06,1.99.36.09.09.77.73,2.04,1.92s2.46,2.38,3.59,3.59c.06.06.2.39.4.97.2.58.06,1.16-.4,1.73Zm15.28-1.45v-2.53h-10.87c-.06.06-.32,0-.75-.15s-.72-.62-.85-1.38c-.03-.03.05-.27.26-.72.21-.45.65-.75,1.34-.9h10.87v-1.89c-.06-.03,0-.27.19-.72s.68-.75,1.5-.9c.03,0,.27.09.7.29.44.2.74.64.89,1.33v1.89h11.44s.27.09.7.29c.44.2.74.64.89,1.33,0,.09-.1.35-.31.79-.21.44-.63.68-1.29.74h-11.44v2.53h12.84s.25.09.66.29c.4.2.68.61.85,1.24,0,.06-.09.3-.28.72s-.59.66-1.22.72h-28.4c-.09.03-.39-.03-.86-.18-.49-.15-.76-.57-.82-1.26-.06-.03,0-.26.19-.68s.68-.7,1.5-.86h12.29Zm-11.91,20.29c.19-.03,1.4-.57,3.63-1.64s4.37-2.38,6.39-3.95h-6.38c-.15.09-.66,0-1.5-.29-.85-.28-1.28-1.15-1.31-2.59v-3.7c-.13-.09-.03-.52.31-1.28.33-.77,1.48-1.21,3.44-1.33h19.03c.13-.03.68.09,1.66.39.98.28,1.56,1.09,1.71,2.41v3.52c.06.15-.08.65-.42,1.51s-1.27,1.32-2.76,1.38h-9c-.15.09-.44.36-.85.81-.15.24-.59.66-1.31,1.26v9.37c0,.06-.1.32-.31.76-.21.45-.67.74-1.39.86-.06.03-.31-.05-.73-.25-.42-.2-.65-.65-.68-1.38v-7.03c-.15.12-1.1.7-2.82,1.74-1.72,1.04-3.44,1.87-5.15,2.5-.06.09-.38.18-.94.27s-1.1-.18-1.59-.81c-.09-.06-.15-.39-.19-.99-.02-.6.36-1.11,1.14-1.53Zm4.22-9.55c-.19.3.15.6,1.03.9h17.34s.2.02.49-.04c.3-.06.48-.34.54-.86v-.99s-.05-.23-.16-.61-.4-.59-.86-.65h-17.34c-.06,0-.24.05-.54.15s-.46.41-.49.92v1.17Zm10.4,9.19c-.09,0-.3-.21-.61-.61-.32-.4-.27-1.01.14-1.82,0-.06.21-.23.63-.52.42-.28,1.05-.29,1.9-.03.06.06.49.33,1.27.81s1.46.87,2.01,1.17c.06-.03.62-.39,1.66-1.08,1.04-.69,2.02-1.47,2.93-2.35.03-.06.32-.17.86-.34.55-.16,1.13,0,1.75.52.06.06.18.35.35.88.17.52,0,1.08-.54,1.64l-4.03,2.97c-.06,0,1.1.93,3.47,2.79.09.12.28.24.56.36.03.03.16.31.4.83.23.53.22,1.15-.03,1.87-.03.09-.32.27-.85.52s-1.12.21-1.78-.15c-.13-.12-1.22-1-3.28-2.64-2.05-1.63-4.33-3.24-6.83-4.84Z"/>
    <path class="cls-4" d="m341.91,50.16s.05-.27.26-.72c.21-.45.65-.75,1.34-.9h3.65v-6.58c-.06-.03,0-.21.19-.56s.68-.55,1.5-.61c.06,0,.34.06.85.18.5.12.85.45,1.03.99v6.58h2.72s.28.1.75.32c.47.21.78.71.94,1.49.03.09-.03.35-.19.79-.15.44-.59.68-1.31.74h-2.91v9.73c.06-.03.47-.15,1.22-.36.09,0,.66-.18,1.69-.54.03-.03.3-.03.8.03.5.04.92.4,1.27,1.06.03.06,0,.35-.09.88-.09.52-.44.92-1.03,1.2-.32.21-1.59.69-3.84,1.44v11.36c.19.3-.06,1.23-.75,2.79-.68,1.57-2.97,2.03-6.85,1.4-.09,0-.37-.16-.82-.5s-.71-.89-.77-1.67c-.03-.09.09-.34.38-.76.28-.42.81-.63,1.59-.63.15.09.8.17,1.94.25s1.71-.34,1.71-1.24v-10.09c-.06.03-.48.16-1.24.4s-1.63.4-2.6.5c-.06.06-.32.07-.77.03s-.79-.41-1.01-1.1c-.06-.03-.05-.32.03-.86s.41-.98,1.01-1.31c0,.03.38-.03,1.12-.18.34,0,1.5-.27,3.47-.81v-11.18h-3.65c-.06.06-.32,0-.75-.15-.44-.18-.71-.63-.84-1.39Zm10.96,29.61c-.09-.03-.27-.27-.54-.72-.27-.45-.21-.98.16-1.57.13-.03.72-1.27,1.78-3.71s1.72-5.8,1.97-10.07v-18.48c-.09-.12-.02-.68.23-1.67.25-.99,1.21-1.52,2.86-1.57h23.53s.23.09.61.29c.38.2.64.64.8,1.33,0,.06-.09.3-.28.72s-.56.66-1.12.72h-21.94c-.06,0-.29.07-.68.21-.39.14-.57.52-.54,1.15v9.37h23.53s.23.1.61.32.64.71.8,1.49c0,.09-.09.39-.28.88s-.56.77-1.12.83h-10.31c-.03.12.13.98.47,2.59s.97,3.42,1.87,5.43c.06,0,.67-.48,1.83-1.45,1.16-.96,2.46-2.25,3.89-3.88,0-.06.21-.19.61-.39s.95-.07,1.64.39c.03.03.16.27.4.7.23.44.22.95-.03,1.56.22.18-1.93,2.19-6.47,6.04,0,.18.73,1.18,2.18,3,1.46,1.81,3.54,3.45,6.26,4.89.06-.03.21.15.42.54.22.39.14.99-.23,1.81-.03.06-.25.22-.66.5-.4.27-.91.28-1.5.04-.06,0-.7-.45-1.93-1.33-1.22-.89-2.67-2.22-4.36-3.99s-3.27-4.02-4.76-6.76c-1.48-2.73-2.53-5.97-3.12-9.69h-3.75v17.85c-.13.21.13.33.75.36.03,0,.51-.23,1.46-.7.94-.46,1.99-1.16,3.14-2.1.03-.06.32-.15.86-.27.55-.12,1.13.09,1.75.63.03.06.09.33.19.81.09.48-.15.9-.75,1.26-.09.09-.76.56-2.01,1.42s-2.61,1.69-4.07,2.5c-.22.15-.99.23-2.32.25-1.33.02-2.09-1.03-2.28-3.13v-18.88h-2.72v4.78c.03.3-.24,2.15-.82,5.55s-1.71,6.67-3.4,9.83c-.03.06-.29.21-.77.45-.49.25-1.1.21-1.86-.09Zm29.81-29.43c0,.09-.06.35-.19.79-.13.44-.5.68-1.12.74h-18.19c-.06.06-.33,0-.8-.15s-.77-.62-.89-1.38c-.03-.03.05-.27.26-.72.21-.45.68-.75,1.43-.9h18s.25.09.66.29c.4.2.68.63.84,1.33Z"/>
    <path class="cls-4" d="m399.13,79.58c-.03-.09.07-.37.31-.83.23-.46.79-.73,1.66-.79.28-.03,1.96-.22,5.04-.58s5.74-.84,7.99-1.45c.03-.03.33-.03.92-.03.58.02,1.09.41,1.52,1.2.03.03.02.24-.04.63s-.49.82-1.27,1.31c-.09.06-1.46.39-4.07.99-2.63.6-6.04,1.02-10.26,1.26-.09.03-.4-.04-.92-.22s-.82-.68-.88-1.5Zm10.22-26.46c-.06.09-.8.58-2.23,1.46-1.42.89-3.24,1.81-5.46,2.77-.06.06-.37.12-.92.18s-1.03-.24-1.43-.9c-.06-.03-.1-.3-.12-.81-.02-.51.31-.99.96-1.45.09,0,.88-.33,2.37-1.01,1.48-.68,3.1-1.66,4.85-2.95.03-.03.28-.09.75-.15.47-.08.94.09,1.4.51.06.06.17.34.33.86.15.51-.02,1.01-.51,1.49Zm.19-6.93c0,.09-.19.31-.56.65s-.97.37-1.78.07c-.06,0-.64-.17-1.74-.51s-2.36-.74-3.8-1.2c-.09.03-.39-.11-.86-.43-.49-.32-.69-.83-.63-1.56-.03-.06.14-.32.5-.76.36-.45,1.01-.68,1.94-.68.06.03.71.26,1.94.68s2.55.86,3.96,1.31c.06.03.27.26.63.68.36.41.5,1,.4,1.75Zm28.12,25.87c.09.18-.05.79-.45,1.82s-1.58,1.54-3.59,1.51h-25.69c-.15.09-.68,0-1.59-.27s-1.38-1.17-1.4-2.7v-12.8c-.06-.12.06-.62.38-1.51.31-.89,1.19-1.44,2.63-1.64h26.43c.13-.03.65.12,1.57.45.92.33,1.49,1.11,1.71,2.35v12.8Zm-29.34-.54s-.03.15-.19.36c-.28.24.09.42,1.12.54h23.81c.28.21.66-.21,1.12-1.26v-1.26h-25.87v1.62h0Zm0-10.64v1.08h25.69v-1.26s-.04-.23-.14-.61-.36-.59-.8-.65h-23.72c-.06-.03-.27.03-.61.18-.35.15-.49.56-.43,1.26Zm26.06,3.7h-26.06v2.53h26.06v-2.53Zm-19.12-18.03c.13.18-1.1,1.08-3.65,2.7-.06.09-.36.2-.89.32s-1.02-.1-1.46-.68c-.06-.03-.11-.28-.14-.76-.03-.48.23-1.01.8-1.57.09-.03.84-.57,2.23-1.62,1.39-1.05,2.74-2.43,4.06-4.14,0-.06.21-.21.63-.45s.99-.21,1.71.09c.06.03.27.22.61.59.34.36.33.8-.04,1.31-.06.15-.34.57-.85,1.26h17.62c.13-.03.74.09,1.83.39,1.1.28,1.76.94,2.01,1.96.06.03-.04.5-.33,1.4s-1.21,2.05-2.76,3.47c-.06.09-.38.23-.93.43-.56.2-1.19.05-1.87-.43-.09,0-.2-.24-.31-.72s.18-1.05.86-1.71c.03-.03.21-.2.54-.5s.52-.56.58-.77c.22-.18-.03-.36-.75-.54h-7.87c-.09.24,1.08,1.32,3.52,3.22,2.44,1.91,6.51,3.33,12.23,4.26.06,0,.33.15.8.47s.7.85.7,1.6c0,.09-.14.33-.42.72-.28.39-.83.57-1.64.54-.38.09-2.54-.4-6.49-1.49-3.95-1.08-7.54-3.17-10.76-6.27.03.18-.86.98-2.7,2.41s-4.78,2.54-8.83,3.36c-.09.06-.5.09-1.22.09s-1.25-.36-1.59-1.08c-.06-.06-.04-.39.04-1.01.09-.62.64-1.06,1.64-1.33.25.06,1.64-.27,4.17-1.01,2.53-.74,4.64-2.23,6.33-4.49h-7.4v-.03Zm28.31,34.48c0,.06-.21.26-.61.58-.4.33-1.04.4-1.93.22-.13-.06-1.35-.43-3.68-1.1s-5.1-1.3-8.32-1.87c-.09,0-.39-.15-.89-.43-.5-.28-.74-.73-.7-1.33-.03-.06.12-.3.45-.72.33-.42.96-.63,1.9-.63.22.03,1.74.33,4.55.88,2.82.56,5.45,1.24,7.92,2.05.06-.03.34.15.85.54.5.38.66.98.47,1.8Z"/>
    <path class="cls-4" d="m456.16,47.09s.04-.26.23-.68c.19-.42.61-.7,1.27-.86h5.25l-1.4-3.6c-.09-.03-.16-.27-.21-.74-.04-.46.31-.91,1.05-1.33.03-.03.33-.03.92,0,.58.03,1.09.33,1.52.9l1.87,4.78h4.41s.23.1.61.32.64.68.8,1.4c0,.06-.1.3-.31.72s-.63.66-1.29.72h-13.22c-.06.06-.3,0-.7-.18-.39-.18-.66-.66-.79-1.44Zm14.72,31.59c.03.09-.06.52-.28,1.28s-.81,1.21-1.78,1.33h-8.44c-.15.06-.69-.04-1.62-.32-.92-.27-1.35-1.16-1.29-2.66v-8.79c-.09-.12-.03-.6.21-1.44.23-.84,1.13-1.29,2.7-1.35h7.69c.13-.06.61.03,1.46.27.85.24,1.29,1.02,1.36,2.35v9.33Zm-.38-17.26c0,.09-.09.37-.26.83-.17.47-.52.73-1.05.79h-10.13c-.06.06-.32,0-.75-.18s-.72-.66-.85-1.45c-.03-.03.06-.27.28-.72.22-.45.72-.75,1.5-.9h9.94s.22.09.56.29c.34.21.6.64.75,1.34Zm-1.12-8.47s.25.09.66.29c.4.2.68.64.85,1.33,0,.09-.09.35-.28.79-.19.44-.59.68-1.22.74h-10.69c-.19-.03-.51-.35-.98-.97-.47-.62-.14-1.34.98-2.18h10.68Zm-8.63,24.15c-.06.06-.04.24.07.54s.52.52,1.24.68h4.03s.23-.09.61-.25c.38-.16.64-.49.8-.97v-6.13c0-.33-.22-.75-.66-1.26h-4.78c-.09-.03-.34.03-.75.18-.4.15-.59.57-.56,1.26v5.95h.02Zm10.68-17.3c-.06-.06.03-.33.28-.79.25-.46.87-.77,1.87-.92h5.91v-12.53h-4.6c-.06.06-.33,0-.8-.21-.47-.2-.77-.73-.89-1.6-.03-.06.05-.33.26-.81s.68-.81,1.43-.99h16.87c.13-.09.62.06,1.5.45s1.34,1.59,1.4,3.6v11.54c-.03.12-.03,1.12,0,3s.13,4.07.28,6.58c.15,2.51.4,4.74.73,6.69s.8,3.05,1.43,3.29c0,.12.09-.07.28-.56.19-.5.34-1.87.47-4.13-.03-.21.03-.87.19-1.99-.03-.03.05-.24.26-.63s.65-.66,1.34-.81c.06,0,.34.09.85.27.5.18.85.57,1.03,1.17,0,.09-.05.7-.16,1.85-.11,1.14-.32,2.46-.61,3.95-.3,1.49-.72,2.8-1.27,3.95-.55,1.14-1.28,1.75-2.18,1.85-.03.03-.35-.14-.96-.5s-1.32-1.25-2.13-2.66-1.53-3.68-2.16-6.8c-.62-3.12-.97-7.42-1.03-12.89v-12.44c.09-.3-.32-.69-1.22-1.17h-6.66v12.53h5.15c.06,0,.32.1.77.32s.73.68.82,1.4c.03.09-.04.4-.21.92s-.63.82-1.39.88h-5.15v18.16c0,.06-.11.4-.33,1.04-.22.63-.74,1.04-1.55,1.22-.09.03-.4-.06-.92-.27-.51-.21-.8-.81-.86-1.81v-18.34h-5.91c-.09.06-.45,0-1.05-.21-.6-.18-.97-.72-1.1-1.58Z"/>
    <path class="cls-4" d="m623.98,45.38c-.03-.06.05-.33.26-.81s.65-.81,1.34-.99h15.47c.09,0,.47-.69,1.12-2.07,0-.03.19-.33.56-.9-.03-.06.15-.24.54-.54s1.05-.36,1.99-.18c.06.03.28.22.66.56s.47.85.28,1.51c0,.03-.19.33-.56.9-.03.06-.15.3-.38.72h21.28s.28.1.75.32.78.7.94,1.49c0,.09-.1.35-.31.79-.21.44-.67.68-1.39.74h-23.53c-.06.12-.54.74-1.43,1.85s-1.82,2.09-2.79,2.93h22.13c.15-.09.85.09,2.06.56s1.87,1.87,1.97,4.21v20.46c.03.06-.05.45-.23,1.17-.19.72-.68,1.48-1.47,2.28-.8.8-2.09,1.32-3.87,1.56-1.78.24-4.24-.12-7.36-1.08-.09,0-.34-.21-.75-.61-.4-.4-.5-1.04-.28-1.92-.03-.06.15-.26.56-.58.4-.33,1.06-.48,1.97-.45.03.03.43.16,1.2.4.76.24,1.65.46,2.64.65,1,.2,1.9.21,2.7.03.8-.18,1.24-.69,1.34-1.53v-4.42h-26.06v8.07c0,.06-.11.33-.33.79-.22.46-.7.77-1.46.92-.09,0-.41-.1-.96-.32s-.86-.68-.92-1.4v-22.59c-.06.06-.62.46-1.69,1.2s-2.35,1.45-3.84,2.14c-.06.09-.4.2-1.03.32-.62.12-1.19-.1-1.69-.68-.06-.03-.09-.35-.09-.97s.38-1.22,1.12-1.82c.22,0,1.9-.96,5.04-2.88,3.14-1.93,6.24-4.69,9.3-8.29h-13.22c-.06.06-.32,0-.75-.15-.45-.17-.73-.62-.85-1.38Zm11.34,10.9v3.88h26.06v-3.7c.09-.3-.32-.78-1.22-1.45h-23.53c-.35-.12-.79.31-1.32,1.27Zm26.06,7.3h-26.06v5.41h26.06v-5.41Z"/>
    <path class="cls-4" d="m686.64,80.12c.03.06-.05.33-.26.79s-.71.77-1.52.92c-.09.03-.39-.03-.86-.21-.49-.16-.76-.61-.82-1.33v-35.29c-.13-.15-.04-.75.26-1.81s1.37-1.62,3.21-1.71h7.22c.13-.06.58.15,1.39.63.8.48.99,1.62.58,3.42-.06.06-.59,1.65-1.59,4.78-.09.18-.34.88-.75,2.1-.4,1.22-.59,1.87-.56,1.96-.15-.09.15.72.94,2.43.15.18.65,1.39,1.47,3.63.83,2.24,1.05,4.57.68,7.01.09.24-.48,1.01-1.71,2.3-1.23,1.29-3.79,1.81-7.66,1.57v8.79h0Zm5.53-33.93c.03-.06.06-.33.09-.81s-.25-.72-.85-.72h-3.47c-.34-.09-.78.27-1.31,1.08v22.26c.15.06.98.05,2.47-.03,1.48-.08,2.51-.49,3.07-1.24.09-.03.17-.88.23-2.55s-.61-3.95-2.01-6.83c-.06-.06-.23-.38-.49-.95-.27-.57-.41-1.04-.45-1.4-.06.09-.02-.27.14-1.08.15-.81.7-2.55,1.64-5.23.12-.29.43-1.13.92-2.51Zm18.75,30.64c-.15.12-1.03.71-2.6,1.78-1.57,1.07-3.02,1.93-4.34,2.59-.22.18-1.03.28-2.41.32-1.39.03-2.18-1.1-2.36-3.38v-32.94c-.13-.15-.04-.74.26-1.75s1.37-1.57,3.21-1.67h16.13c.15-.06.76.06,1.83.36,1.06.3,1.64,1.14,1.74,2.53v13.43c.06.18-.09.83-.47,1.93-.38,1.11-1.44,1.69-3.18,1.75h-8.72c0,.12.27.92.8,2.39.53,1.47,1.33,3.08,2.39,4.82.03.03.73-.31,2.09-1.01,1.36-.7,3.04-1.96,5.04-3.77,0-.03.23-.12.7-.27.47-.15,1.04-.06,1.74.27.03.03.15.27.38.7.22.44.15.92-.19,1.46-.06.09-.8.7-2.23,1.82-1.42,1.13-3.34,2.35-5.74,3.67.03.18.84,1.07,2.41,2.68s3.71,2.86,6.39,3.77c.06-.03.35.15.86.56.51.4.73,1.06.63,1.96,0,.06-.21.26-.61.58-.4.33-1.04.4-1.93.22-.06,0-.75-.33-2.06-.99-1.31-.66-2.9-1.75-4.78-3.27-1.87-1.52-3.7-3.55-5.46-6.1-1.76-2.55-3.13-5.73-4.1-9.51h-3.65v15.32c-.13.12-.06.24.19.36-.06.09.25.03.94-.18-.03.06.31-.09,1.01-.43s1.96-1.19,3.77-2.54c0-.06.25-.19.75-.39.5-.2,1.1-.07,1.78.39.06.03.19.3.38.81.17.52,0,1.09-.57,1.72Zm-6.94-31.99c-.06,0-.31.08-.75.22-.44.15-.68.47-.75.95v4.32h16.31v-4.32s-.07-.2-.21-.5c-.14-.3-.54-.52-1.2-.68h-13.4Zm14.82,12.7v-4.24h-16.31v5.5h15.28c.03.06.2.03.49-.07.3-.09.49-.5.55-1.19Z"/>
    <path class="cls-4" d="m738.42,64.58c-.09-.03-.18-.34-.26-.92-.08-.59.32-1.27,1.2-2.05.31.06,2.09-1.49,5.32-4.66,3.24-3.17,6.05-8.23,8.46-15.17-.03-.09.15-.39.54-.88s1.05-.65,1.99-.47c.06,0,.34.21.85.61.5.4.66,1.08.47,2,0,.09-.29.93-.86,2.53-.58,1.59-1.48,3.57-2.72,5.92-1.23,2.36-2.82,4.74-4.76,7.15-1.93,2.41-4.25,4.45-6.93,6.13-.06.09-.46.22-1.2.4s-1.44,0-2.1-.57Zm21.28,14.65c-.22,0-1.81.06-4.78.18-2.97.12-6.15.24-9.56.36-.13,0-.62-.09-1.48-.25s-1.52-.5-1.99-1.01c-.06-.03-.08-.29-.05-.79.03-.5.49-1.15,1.36-1.96.03-.03.59-.66,1.69-1.89,1.1-1.23,2.46-2.86,4.07-4.89,1.62-2.03,3.26-4.26,4.92-6.72,1.65-2.45,3.09-4.92,4.31-7.41,0-.06.23-.31.7-.74s1.17-.51,2.11-.25c.06,0,.27.25.63.74s.4,1.24.12,2.23c-.09.33-1.39,2.52-3.87,6.56s-5.6,8.11-9.35,12.19c-.19.21-.38.51-.56.9-.09.09.25.09,1.03,0,.22.03,2.7-.05,7.46-.25,4.75-.2,10.36-.65,16.83-1.38.13-.27-1.91-3.22-6.09-8.83-.09,0-.22-.26-.38-.76-.15-.51.09-1.13.75-1.85.03-.06.35-.18.96-.36.61-.18,1.22,0,1.85.54.19.24,1.47,2.05,3.84,5.43,2.37,3.38,4.62,6.9,6.75,10.57.06.03.12.34.16.95.05.6-.29,1.16-1.01,1.67-.06.06-.43.1-1.1.14-.68.03-1.3-.32-1.9-1.04.03.09-.62-1.08-1.97-3.52-.15,0-1.74.16-4.73.5-2.97.33-6.55.64-10.71.94Zm8.06-37.64c0,.06.35.82,1.05,2.28.7,1.46,1.7,3.27,3,5.43,1.29,2.17,2.86,4.36,4.69,6.58,1.83,2.23,3.89,4.13,6.16,5.73.09.06.38.4.85,1.04s.56,1.34.28,2.11c-.03.09-.32.28-.85.58-.53.3-1.28.16-2.25-.4-.25.12-2.15-1.5-5.69-4.87-3.54-3.36-7.24-9.11-11.08-17.21-.09-.06-.15-.4-.19-1.01-.03-.62.34-1.15,1.12-1.6.03-.03.38,0,1.03.07s1.29.51,1.88,1.28Z"/>
    <path class="cls-4" d="m834.36,46.19s-.04-.25-.23-.65c-.19-.4-.7-.64-1.55-.7h-32.71c-.09.06-.42,0-.98-.18-.56-.18-.92-.66-1.08-1.45-.03-.06.08-.33.33-.81s.83-.78,1.74-.9h34.03c.15-.09.84.06,2.06.45,1.22.39,1.87,1.59,1.97,3.6v29.47c.06.18-.04.94-.31,2.28s-1.1,2.28-2.51,2.82c.06.06-.85.21-2.72.43s-5.25.09-10.13-.43c-.09,0-.44-.14-1.03-.4-.59-.27-.87-.8-.85-1.57-.03-.06.11-.23.42-.51s.98-.46,2.01-.52c.25.06,1.53.14,3.84.22,2.31.09,4.15.02,5.53-.22.06.06.41-.05,1.05-.34.64-.28,1.01-1.1,1.1-2.46v-28.12h0Zm-4.4,4.14c0,.09-.1.35-.31.79-.21.44-.63.68-1.29.74h-27.75c-.09.06-.39,0-.86-.15-.49-.16-.76-.62-.82-1.38-.03-.03.06-.27.28-.72.22-.45.75-.75,1.59-.9h27.56s.27.09.7.29c.45.2.74.63.9,1.33Zm-2.16,20.64c.06.15-.06.68-.38,1.57s-1.28,1.37-2.9,1.4h-20.25c-.15.09-.7,0-1.64-.27-.93-.27-1.42-1.17-1.46-2.7v-11.99c-.09-.12-.02-.64.23-1.57.25-.93,1.2-1.43,2.86-1.49h20.25c.13-.06.67.09,1.62.43s1.51,1.28,1.66,2.82v11.82h0Zm-22.96-2.16c-.06.09-.03.4.09.92.13.53.59.82,1.4.88h16.31c.06.06.33.02.82-.14.49-.15.77-.7.86-1.67v-8.29s-.04-.23-.23-.61c-.19-.38-.68-.59-1.46-.65h-16.5c-.09-.03-.34.03-.75.18-.4.15-.59.57-.56,1.26v8.11h0Z"/>
    <g class="cls-6">
      <path class="cls-3" d="m513.87,82.16c-.1,0-.36-.19-.79-.58-.43-.39-.49-.97-.17-1.75.1.03.49-1.22,1.18-3.76.69-2.54,1.09-6.64,1.22-12.3v-19.79c-.1-.13.02-.74.36-1.82.34-1.08,1.4-1.71,3.19-1.87h4.41c.13-.06.68.1,1.66.49.97.39,1.54,1.46,1.7,3.2v34.25c.13.26-.1,1.11-.7,2.55s-2.37,2.03-5.35,1.77c-.1,0-.39-.15-.89-.44-.5-.29-.78-.86-.84-1.7-.03-.1.09-.37.36-.83.27-.45.79-.68,1.56-.68.1.07.5.08,1.22.05.72-.03,1.14-.47,1.27-1.31v-9.9h-4.61c0,.36-.17,2.14-.5,5.36-.34,3.22-.97,5.91-1.89,8.08-.03.06-.26.29-.7.68-.43.39-1,.49-1.7.29Zm6.14-38.57c-.07,0-.3.07-.72.19-.42.13-.62.52-.62,1.16v7.18h4.61v-7.08s-.07-.27-.19-.7c-.13-.44-.51-.69-1.15-.75h-1.92Zm3.26,11.74h-4.41v9.12h4.41v-9.12Zm8.44,11.84c-.1-.03-.3-.37-.62-1.02-.32-.65-.18-1.34.43-2.09.03-.06.38-.15,1.03-.24.65-.1,1.43.18,2.33.83.03.13.78.94,2.23,2.43,1.46,1.49,3.33,2.98,5.64,4.46.03-.03.51-.49,1.44-1.38.93-.89,1.93-1.94,3-3.15,1.07-1.21,1.86-2.31,2.37-3.3.51-.99.38-1.61-.38-1.87h-17.46c-.07.07-.34,0-.82-.19-.48-.19-.78-.71-.91-1.55-.03-.03.06-.27.26-.73.21-.45.7-.76,1.46-.92h19.86c.22-.06.94.24,2.16.9,1.21.66,1.46,2.14.72,4.44-.03.16-.79,1.27-2.28,3.32-1.49,2.05-3.61,4.28-6.36,6.67.06.1,1.19.74,3.38,1.92,2.19,1.18,4.87,2.3,8.03,3.37.06-.03.31.14.74.51.43.37.5,1.04.22,2.01,0,.06-.2.29-.6.68-.4.39-1,.55-1.8.49-.26.26-4.67-1.83-13.24-6.26-.06.07-1.07.7-3.02,1.89-1.95,1.2-4.62,2.65-8.01,4.37-.1.03-.5.03-1.2,0-.7-.03-1.33-.42-1.87-1.16-.06-.1-.06-.46,0-1.09.06-.63.58-1.16,1.54-1.58.06.03.98-.32,2.76-1.04,1.77-.73,3.93-1.96,6.45-3.71-.1-.03-.9-.7-2.42-1.99-1.52-1.29-3.21-2.96-5.06-5Zm-2.3-10.29c-.1-.03-.19-.35-.29-.95-.1-.6.26-1.29,1.06-2.06.1.03.54-.44,1.34-1.41.8-.97,1.21-2.54,1.25-4.71v-3.98c-.1-.1.04-.61.41-1.55.37-.94,1.45-1.52,3.24-1.75h10.65c.13-.06.66.09,1.61.46.94.37,1.49,1.38,1.65,3.03v6.21c-.06.1,0,.4.17.9.18.5.66.78,1.46.85h2.69c.06,0,.4.11,1.01.34.61.23,1.01.76,1.2,1.6.03.1-.09.38-.36.85-.27.47-.89.74-1.85.8h-3.55c-.19.13-.9-.05-2.13-.53-1.23-.49-1.93-1.96-2.09-4.42v-5.34s-.06-.23-.19-.61c-.13-.37-.48-.59-1.06-.65h-7.96c-.1,0-.37.07-.81.22-.45.15-.66.56-.62,1.24v3.1c.06.19-.08,1.26-.43,3.2s-1.46,3.66-3.31,5.14c-.07.1-.44.28-1.13.53-.69.26-1.34.08-1.94-.53Z"/>
    </g>
    <g>
      <path class="cls-3" d="m567.96,62.72c-.06,0-.2-.25-.4-.74s-.14-1.16.21-2.02c.13.03,1.11-1.66,2.98-5.07,1.86-3.41,3.74-8.53,5.65-15.37-.03-.06.1-.25.4-.55.3-.31.88-.37,1.75-.18.06,0,.3.12.7.37.4.25.61.7.61,1.38-.09.27-.58,1.77-1.46,4.49s-1.67,5.01-2.39,6.87v28.91s-.1.26-.31.68-.67.72-1.38.87c-.09,0-.37-.1-.82-.3-.45-.2-.71-.62-.77-1.26v-22.41c.06.09-.62,1.28-2.06,3.58-.03.09-.3.31-.8.64-.51.33-1.15.36-1.93.09Zm23.14-23.37c.06,0,.31.18.73.55s.58,1.01.5,1.93c0,.06-.21.71-.61,1.94-.41,1.24-1.07,2.79-1.99,4.65-.92,1.87-2.15,3.77-3.68,5.7-1.53,1.94-3.41,3.65-5.62,5.11-.06.09-.42.26-1.08.5s-1.27.08-1.82-.5c-.09-.03-.22-.32-.38-.85-.15-.53.15-1.14.94-1.81.28,0,1.75-1.35,4.4-4.06s4.72-6.63,6.19-11.79c-.03-.06.13-.33.49-.8.35-.46,1-.65,1.94-.56Zm-12.37,38.17s.55-.23,1.55-.68,2.16-1.31,3.47-2.57c1.31-1.25,2.5-3.01,3.56-5.29,1.06-2.28,1.7-5.21,1.92-8.82h-4.59c-.09.06-.37,0-.82-.18s-.71-.7-.77-1.56c-.06-.06,0-.33.16-.82s.65-.82,1.43-1.01h18.75c.19-.09.92.05,2.18.44s1.94,1.55,2.04,3.51c0,.09-.02.96-.04,2.58-.03,1.63-.11,3.57-.23,5.82-.13,2.24-.33,4.33-.63,6.26s-.71,3.25-1.24,3.99c.09.21-.61.74-2.11,1.6s-4.36.68-8.58-.5c-.13,0-.49-.21-1.1-.62-.61-.41-.86-1.06-.77-1.94-.03-.06.21-.27.7-.62s1.27-.5,2.29-.44c.19.18,1.16.5,2.9.96,1.75.46,2.97.14,3.65-.96.03.25.28-.56.75-2.43s.78-6.19.94-12.97c0-.03-.05-.21-.16-.53-.11-.32-.43-.51-.96-.57h-10.12c0,.09-.12.99-.35,2.7-.23,1.71-.74,3.77-1.52,6.19-.78,2.41-2.01,4.7-3.68,6.85-1.67,2.16-3.91,3.73-6.73,4.74-.09.06-.49.14-1.19.23s-1.34-.17-1.9-.78c-.09-.06-.15-.39-.16-.96-.04-.6.42-1.14,1.36-1.63Zm22.96-36.79c-.03.33.78,2.32,2.44,5.96,1.65,3.64,4.34,6.99,8.05,10.08.06.03.27.34.61.94.34.6.33,1.29-.04,2.09-.03.09-.32.25-.86.48s-1.22,0-2.04-.67c-.28-.03-1.83-1.57-4.64-4.63-2.81-3.06-5.2-7.44-7.16-13.15-.06-.03-.09-.34-.09-.94s.4-1.1,1.22-1.53c.06-.03.39,0,1.01.07.6.07,1.1.5,1.52,1.3Z"/>
      <text/>
    </g>
  </g>
  <g>
    <path class="cls-5" d="m236.99,123.29c-2.99,0-5.57,1.69-6.86,4.18h-125.75c-.15,0-.29,0-.44.03-6.55.27-12.91-1.23-18.48-4.2-5.64-3.01-10.49-7.54-13.91-13.23-3.41-5.68-5.11-12.09-5.11-18.51s1.7-12.82,5.11-18.51c3.42-5.69,8.26-10.22,13.91-13.23,5.61-3,12.03-4.5,18.63-4.19.15,0,.33.02.49,0,1.94-.11,3.43-1.78,3.31-3.72-.26-4.38.65-8.68,2.54-12.48,1.88-3.8,4.75-7.12,8.4-9.56,3.65-2.43,7.8-3.82,12.03-4.11,4.23-.29,8.53.49,12.46,2.39l.05.02.03.02.05.03h.03s.06.03.06.03h.03s.06.03.06.03h.02s.07.03.07.03h.02s.08.03.08.03l.07.03h0l.08.03h0l.08.03h0c.42.1.85.13,1.26.08h.09s.16-.03.16-.03h.02l.07-.02h.02l.07-.02h.02l.07-.02h.02l.07-.02h.02l.07-.02h0l.07-.03h.02l.07-.03h0l.07-.03h0s.07-.04.07-.04h0l.07-.03h0l.07-.03h0l.07-.03h0l.07-.03.08-.04h0l.07-.04.07-.04h0l.07-.04h0s.07-.05.07-.05h0c.19-.14.37-.29.53-.46,3.84-3.98,8.53-6.92,13.64-8.68,5.13-1.76,10.67-2.31,16.18-1.52,5.51.8,10.66,2.9,15.07,6.04,4.42,3.14,8.09,7.32,10.65,12.27l.06.11c2.57,5.32,3.77,11.08,3.63,16.83-.15,5.79-1.68,11.56-4.57,16.79-2.88,5.22-6.96,9.57-11.79,12.78-.77.51-1.57.99-2.37,1.45-.61,3.37-2.09,6.72-4.22,9.52,3.72-1.22,7.25-2.94,10.49-5.08,5.77-3.83,10.63-9.03,14.08-15.26,3.44-6.22,5.25-13.1,5.43-20.03.17-6.84-1.28-13.72-4.33-20.07-.03-.09-.08-.18-.13-.27-3.08-5.97-7.51-11-12.82-14.78-5.32-3.78-11.53-6.33-18.17-7.28-6.63-.96-13.3-.29-19.46,1.82-5.4,1.85-10.43,4.83-14.72,8.79-4.43-1.73-9.12-2.42-13.75-2.1-5.44.38-10.79,2.16-15.48,5.3-4.69,3.14-8.37,7.4-10.8,12.29-1.88,3.79-3,7.96-3.26,12.27-6.62.24-13,2-18.7,5.04-6.76,3.61-12.56,9.02-16.64,15.83-4.09,6.82-6.14,14.48-6.14,22.13s2.05,15.3,6.14,22.13c4.08,6.81,9.88,12.22,16.64,15.83,6.68,3.57,14.29,5.37,22.12,5.03h125.87c1.28,2.48,3.87,4.18,6.86,4.18,4.26,0,7.71-3.46,7.71-7.71.02-4.31-3.44-7.76-7.7-7.76Zm.03,10.32c-1.34,0-2.43-1.09-2.43-2.43s1.09-2.43,2.43-2.43,2.43,1.09,2.43,2.43-1.09,2.43-2.43,2.43Z"/>
    <path class="cls-1" d="m173.23,81.32c0-1.87-1.52-3.39-3.39-3.39s-3.39,1.52-3.39,3.39,1.52,3.39,3.39,3.39c1.87,0,3.39-1.52,3.39-3.39Z"/>
    <path class="cls-1" d="m104.73,102.34c0,1.87,1.52,3.39,3.39,3.39s3.39-1.52,3.39-3.39-1.52-3.39-3.39-3.39c-1.87,0-3.39,1.52-3.39,3.39Z"/>
    <path class="cls-7" d="m249.87,56.9c-3.99-4.38-9.08-7.77-14.87-9.73-.92-3.24-3.89-5.61-7.42-5.61-4.26,0-7.71,3.46-7.71,7.72s3.45,7.71,7.71,7.71c2.41,0,4.57-1.11,5.98-2.85,4.29,1.6,8.07,4.2,11.08,7.51,4.62,5.08,7.41,11.81,7.41,19.16s-2.79,14.09-7.41,19.16c-4.56,5.02-10.9,8.41-18.09,9.15h-118.14c-.2,0-.39,0-.57.04-1.22.07-2.44-.19-3.52-.72-1.14-.56-2.12-1.44-2.82-2.56-.69-1.11-1.04-2.39-1.04-3.68s.35-2.56,1.04-3.67c.69-1.11,1.68-1.99,2.82-2.56,1.07-.53,2.29-.79,3.52-.72.19.03.38.04.57.04h45.3l14.92-.02v-.03.03l1,.02c2.53.18,5.03-.4,7.22-1.49,2.29-1.14,4.28-2.91,5.69-5.18,1.4-2.27,2.11-4.83,2.11-7.38s-.71-5.11-2.11-7.38-3.4-4.04-5.69-5.18c-2.18-1.09-4.66-1.6-7.2-1.42h-63.12c-1.15-2.01-3.31-3.37-5.79-3.37-3.69,0-6.68,2.99-6.68,6.68s2.99,6.68,6.68,6.68c2.29,0,4.31-1.15,5.5-2.9h63.39c.2,0,.39-.02.57-.04,1.22-.07,2.44.19,3.52.72,1.14.56,2.12,1.45,2.82,2.56s1.04,2.39,1.04,3.67-.35,2.57-1.04,3.68c-.69,1.11-1.68,1.99-2.82,2.56-1.07.53-2.26,1.01-3.48.94-.24,0-.58-.02-.78-.02l-61.08-.18c-2.53-.17-5.02.33-7.2,1.42-2.29,1.14-4.28,2.91-5.69,5.18-1.4,2.27-2.11,4.84-2.11,7.38s.71,5.11,2.11,7.38,3.4,4.04,5.69,5.18c2.18,1.09,4.66,1.6,7.2,1.42h118.2c.22,0,.45-.03.66-.06,9-.92,16.92-5.15,22.61-11.41,5.77-6.33,9.26-14.75,9.26-23.91s-3.48-17.58-9.26-23.91Zm-22.33-5.23c-3.17,0-3.17-4.91,0-4.91s3.17,4.91,0,4.91Zm-126.79,21.32c-1.34,0-2.43-1.09-2.43-2.43s1.09-2.43,2.43-2.43,2.43,1.09,2.43,2.43-1.09,2.43-2.43,2.43Zm67.94,21.84c.02-.09,0-.08,0,0h0Zm-.02.21c0-.08.02-.14.02-.18,0,.05,0,.12-.02.18Z"/>
    <g>
      <path class="cls-1" d="m111.47,102.34c0-1.85-1.5-3.35-3.35-3.35s-3.35,1.5-3.35,3.35,1.5,3.35,3.35,3.35c1.85,0,3.35-1.51,3.35-3.35Z"/>
      <path class="cls-8" d="m111.47,102.34c0-1.85-1.5-3.35-3.35-3.35s-3.35,1.5-3.35,3.35,1.5,3.35,3.35,3.35c1.85,0,3.35-1.51,3.35-3.35Z"/>
    </g>
  </g>
</svg>