<?xml version="1.0" encoding="UTF-8"?>
<svg id="_圖層_2" data-name="圖層 2" xmlns="http://www.w3.org/2000/svg" xmlns:xlink="http://www.w3.org/1999/xlink" viewBox="0 0 370.5 202.34">
  <defs>
    <style>
      .cls-1 {
        fill: url(#linear-gradient-2);
      }

      .cls-2 {
        fill: url(#linear-gradient-3);
      }

      .cls-3 {
        fill: url(#linear-gradient);
      }

      .cls-4 {
        fill: url(#linear-gradient-4);
      }
    </style>
    <linearGradient id="linear-gradient" x1="267.77" y1="-17.02" x2="264.77" y2="230.47" gradientUnits="userSpaceOnUse">
      <stop offset="0" stop-color="#ca4480"/>
      <stop offset="1" stop-color="#bd5ec7"/>
    </linearGradient>
    <linearGradient id="linear-gradient-2" x1="236.99" y1="-17.39" x2="233.99" y2="230.1" xlink:href="#linear-gradient"/>
    <linearGradient id="linear-gradient-3" x1="297.23" y1="-16.66" x2="294.24" y2="230.83" xlink:href="#linear-gradient"/>
    <linearGradient id="linear-gradient-4" x1="186.43" y1="-18.01" x2="183.43" y2="229.48" xlink:href="#linear-gradient"/>
  </defs>
  <g id="_操作圖層" data-name="操作圖層">
    <path class="cls-3" d="m260.22,90.25c-.29,0-.59-.04-.89-.13-1.59-.49-2.48-2.18-1.99-3.76l13.1-42.47c.49-1.59,2.17-2.48,3.76-1.99,1.59.49,2.48,2.18,1.99,3.76l-13.1,42.47c-.4,1.29-1.59,2.12-2.87,2.12Z"/>
    <path class="cls-1" d="m242.52,84.67c-.89,0-1.78-.4-2.37-1.16l-13.26-17c-.86-1.11-.85-2.67.04-3.75l13.21-16.17c1.05-1.29,2.95-1.48,4.23-.43,1.29,1.05,1.48,2.95.43,4.23l-11.69,14.31,11.78,15.1c1.02,1.31.79,3.2-.52,4.23-.55.43-1.2.64-1.85.64Z"/>
    <path class="cls-2" d="m289.77,84.6c-.64,0-1.29-.2-1.84-.63-1.31-1.02-1.55-2.91-.53-4.22l11.73-15.14-11.73-14.28c-1.06-1.28-.87-3.18.42-4.24,1.28-1.05,3.18-.87,4.23.42l13.26,16.13c.89,1.09.91,2.64.05,3.75l-13.21,17.04c-.59.77-1.48,1.17-2.38,1.17Z"/>
    <path class="cls-4" d="m369.9,61.05c-3.75-2.73-6.74-4.52-9.01-5.7.02.17.02.36.03.53-.43-2.86-1.04-5.66-1.76-8.3,2.46.56,4.85,1.33,6.02,2.31.27.23.6.34.93.34.41,0,.82-.18,1.1-.52.51-.61.43-1.52-.18-2.03-1.91-1.6-5.64-2.63-8.82-3.26-1.06-3.26-2.28-6.23-3.54-8.7,2.4-11.94,5.3-31.22,1.85-33.26-7.26-4.59-27.52,8.91-27.52,8.91,0,0-10.63-10.39-58.63-10.48h-8.89c-48,.26-58.6,10.68-58.6,10.68,0,0-20.31-13.44-27.55-8.83-3.45,2.05-.49,21.32,1.95,33.25-1.3,2.54-2.54,5.6-3.61,8.97-3.05.62-6.48,1.55-8.24,2.89-.63.48-.76,1.39-.28,2.02.28.37.72.57,1.15.57.3,0,.61-.1.87-.29,1.07-.81,3.26-1.5,5.57-2.03-.69,2.58-1.26,5.3-1.67,8.09-2.28,1.13-4.76,2.69-6.81,4.78-.56.57-.55,1.48.02,2.04.28.28.65.41,1.01.41s.75-.15,1.03-.43c1.3-1.32,2.81-2.39,4.33-3.27-.32,3.46-.37,6.97-.05,10.41-1.21,1.53-2.39,3.27-3.34,5.24-.34.72-.04,1.58.68,1.92.2.1.41.14.62.14.54,0,1.05-.3,1.3-.82.39-.82.84-1.58,1.31-2.32,1.14,6.09,3.59,11.79,7.89,16.33v4.01c-.64,4.94-1.21,19.02-1.21,19.02-.04.99-.07,1.93-.1,2.89-6.25,3.15-16.29,11.11-18.24,13.2-6.33,6.8-11.37,13.62-18.21,19.96-16.4,15.22-38.45,26.03-61.2,20.75-29.11-6.75-48.9-33.46-53.81-61.62-2.09-11.95-1.27-24.28,2.98-35.71,6-16.12,17.48-27.48,31.2-37.47,24.31-17.69,51.03-14.35,78.41-7.05,8.46,2.25,14.26-8.12,9.69-14.7-4.9-7.06-14.18-9.02-22.13-11.01C89.2-6.38,52.54,7.15,26.55,33.92,5.89,55.22-3.53,83.45,1.2,112.44c1.22,7.47,2.95,14.95,5.67,22.04,7.77,20.26,22.88,40.09,41.52,51.6,21.37,13.2,43.58,13.38,67.68,9.46,0,0,29.91-8.1,49.04-32.13,8.6-8.59,9.01-10.11,12.72-12.8,1.49,28.22,6.76,40.57,12.31,50.55,9.33,2.03,15.6,1.26,18.13-1.05-5.51-43.74-.85-48.1,1.47-52.7,2.3-3.53,13.79-5.1,25.85-5.76v.24l65.31-.1h0c10.6.73,20.02,2.29,22.09,5.45,2.34,4.6,7.01,8.94,1.63,52.7,2.54,2.3,8.81,3.06,18.13,1,7.49-13.57,14.45-31.49,12.04-87.51,0,0-1.45-23.26-2.25-22.48l-.08.04c4.42-4.41,6.99-10,8.24-16.02.28.31.67.48,1.07.48.22,0,.44-.05.64-.15.71-.36,1-1.23.64-1.94-.47-.93-1.04-1.87-1.67-2.79.4-3.87.33-7.83-.07-11.7,1.87,1.07,4.16,2.52,6.9,4.52.26.18.55.28.85.28.45,0,.89-.21,1.17-.6.47-.64.33-1.55-.32-2.02m-53.81-35.69c2.08,0,3.77,1.68,3.77,3.76,0,2.08-1.68,3.77-3.76,3.77-2.08,0-3.77-1.68-3.77-3.76,0-2.08,1.68-3.77,3.76-3.77m-100.31.15c2.08,0,3.77,1.68,3.77,3.76,0,2.08-1.68,3.77-3.76,3.77-2.08,0-3.77-1.68-3.77-3.76,0-2.08,1.68-3.77,3.76-3.77m114.94,50.32c-5.96,9.57-19.05,14.77-30.17,14.78l-31.16.05-47.02.07c-31.44-5.5-26.99-27.86-26.99-27.86,4.91-26.47,39.79-25.24,39.79-25.24l29.69-.05,35.36-.06c5.61.19,11.45,2.16,16.31,4.77,7.77,4.17,14.98,11.94,16.63,20.45.83,4.31.24,8.79-2.44,13.08"/>
  </g>
</svg>